# xmcd
#
# Track frame offsets:
#	150
#	11612
#	24235
#	37317
#	49887
#	62613
#	76134
#	89598
#	101422
#	113425
#	125018
#	137144
#	149822
#	162085
#	175182
#	186226
#	198441
#	210802
#	222697
#	234605
#	246917
#	259282
#	270895
#	283317
#
# Disc length: 3930 seconds
#
# Revision: 0
# Processed by: cddbd v1.5.2PL0 Copyright (c) Steve Scherf et al.
# Submitted via: audiograbber 1.83.01
#
DISCID=650f5818
DTITLE=Dupree, Champion Jack - Barrelhouse Piano Blues and Boogie
DYEAR=1998
DGENRE=Blues
TTITLE0=Chain Gang Blues
TTITLE1=Black Woman Swing
TTITLE2=Angola Blues
TTITLE3=Gamblin' Man Blues
TTITLE4=Warehouse Man Blues
TTITLE5=New Low Down Dog
TTITLE6=Cabbage Greens No. 1
TTITLE7=Cabbage Greens No. 2
TTITLE8=Bad Health Blues
TTITLE9=That's All Right
TTITLE10=My Cabin Inn
TTITLE11=Gibing Blues
TTITLE12=Cupree Shake Dance
TTITLE13=Weed Head Woman
TTITLE14=My Baby's Gone
TTITLE15=Junker Blues
TTITLE16=All Alone Blues
TTITLE17=Big Time Mama
TTITLE18=Hurry Down Sunshine
TTITLE19=Jackie P. Blues
TTITLE20=Shady Lane
TTITLE21=Heavy Heart Blues
TTITLE22=Morning Tea
TTITLE23=Black Cow Blues
EXTD=
EXTT0=
EXTT1=
EXTT2=
EXTT3=
EXTT4=
EXTT5=
EXTT6=
EXTT7=
EXTT8=
EXTT9=
EXTT10=
EXTT11=
EXTT12=
EXTT13=
EXTT14=
EXTT15=
EXTT16=
EXTT17=
EXTT18=
EXTT19=
EXTT20=
EXTT21=
EXTT22=
EXTT23=
PLAYORDER=
